<?xml version="1.0" encoding="UTF-8"?>
<svg width="512" height="512" viewBox="0 0 512 512" fill="none" xmlns="http://www.w3.org/2000/svg">
  <!-- Fond avec dégradé -->
  <rect width="512" height="512" rx="128" fill="url(#paint0_linear)"/>
  
  <!-- Cercle intérieur -->
  <circle cx="256" cy="256" r="200" fill="white" fill-opacity="0.1"/>
  
  <!-- Portefeuille principal -->
  <g filter="url(#shadow)">
    <!-- Corps du portefeuille -->
    <path d="M122 172C122 161.507 130.507 153 141 153H371C381.493 153 390 161.507 390 172V340C390 350.493 381.493 359 371 359H141C130.507 359 122 350.493 122 340V172Z" fill="#FFFFFF"/>
    
    <!-- Rabat du portefeuille -->
    <path d="M122 172C122 161.507 130.507 153 141 153H371C381.493 153 390 161.507 390 172V190H122V172Z" fill="#F0F0F0"/>
    
    <!-- Poche latérale -->
    <path d="M390 220H350C334.536 220 322 232.536 322 248V264C322 279.464 334.536 292 350 292H390V220Z" fill="#4158D0"/>
    <circle cx="350" cy="256" r="15" fill="white"/>
    
    <!-- Compartiments intérieurs -->
    <rect x="142" y="210" width="160" height="20" rx="6" fill="#F0F0F0"/>
    <rect x="142" y="240" width="160" height="20" rx="6" fill="#F0F0F0"/>
    <rect x="142" y="270" width="160" height="20" rx="6" fill="#F0F0F0"/>
    <rect x="142" y="300" width="160" height="20" rx="6" fill="#F0F0F0"/>
    
    <!-- Coutures du portefeuille -->
    <path d="M122 190H390" stroke="#E0E0E0" stroke-width="2" stroke-dasharray="4 4"/>
    <path d="M142 330H370" stroke="#E0E0E0" stroke-width="2" stroke-dasharray="4 4"/>
    
    <!-- Symbole € -->
    <g filter="url(#glow)">
      <path d="M256 256C256 243.85 265.85 234 278 234H290" stroke="#C850C0" stroke-width="14" stroke-linecap="round"/>
      <path d="M256 278C256 290.15 265.85 300 278 300H290" stroke="#C850C0" stroke-width="14" stroke-linecap="round"/>
      <path d="M256 256H230" stroke="#C850C0" stroke-width="14" stroke-linecap="round"/>
      <path d="M256 278H230" stroke="#C850C0" stroke-width="14" stroke-linecap="round"/>
      <path d="M256 234V300" stroke="#C850C0" stroke-width="14" stroke-linecap="round"/>
    </g>
  </g>
  
  <!-- Définitions des dégradés et filtres -->
  <defs>
    <filter id="shadow" x="102" y="133" width="308" height="246" filterUnits="userSpaceOnUse" color-interpolation-filters="sRGB">
      <feFlood flood-opacity="0" result="BackgroundImageFix"/>
      <feColorMatrix in="SourceAlpha" type="matrix" values="0 0 0 0 0 0 0 0 0 0 0 0 0 0 0 0 0 0 127 0"/>
      <feOffset dy="4"/>
      <feGaussianBlur stdDeviation="10"/>
      <feColorMatrix type="matrix" values="0 0 0 0 0 0 0 0 0 0 0 0 0 0 0 0 0 0 0.25 0"/>
      <feBlend mode="normal" in2="BackgroundImageFix" result="effect1_dropShadow"/>
      <feBlend mode="normal" in="SourceGraphic" in2="effect1_dropShadow" result="shape"/>
    </filter>
    <filter id="glow" x="220" y="224" width="80" height="86" filterUnits="userSpaceOnUse" color-interpolation-filters="sRGB">
      <feFlood flood-opacity="0" result="BackgroundImageFix"/>
      <feColorMatrix in="SourceAlpha" type="matrix" values="0 0 0 0 0 0 0 0 0 0 0 0 0 0 0 0 0 0 127 0"/>
      <feOffset/>
      <feGaussianBlur stdDeviation="2"/>
      <feColorMatrix type="matrix" values="0 0 0 0 1 0 0 0 0 1 0 0 0 0 1 0 0 0 0.5 0"/>
      <feBlend mode="normal" in2="BackgroundImageFix" result="effect1_dropShadow"/>
      <feBlend mode="normal" in="SourceGraphic" in2="effect1_dropShadow" result="shape"/>
    </filter>
    <linearGradient id="paint0_linear" x1="0" y1="0" x2="512" y2="512" gradientUnits="userSpaceOnUse">
      <stop offset="0%" stop-color="#4158D0"/>
      <stop offset="50%" stop-color="#C850C0"/>
      <stop offset="100%" stop-color="#FFCC70"/>
    </linearGradient>
  </defs>
</svg> 